<svg width="406" height="385" viewBox="0 0 406 385" fill="none" xmlns="http://www.w3.org/2000/svg">
<path d="M46.5 1.90002C28.6 7.10002 14.1 19.2 6.19999 35.5C-0.400013 48.8 -1.31156e-05 39.8 -1.31156e-05 192C-1.31156e-05 346.6 -0.500013 335.4 7.29999 350.5C15.2 365.8 31.5 378.6 48.1 382.5C57.6 384.7 326.3 384.7 335.8 382.5C353.5 378.3 369.7 365.2 377.8 348.5C384.1 335.7 384 337.3 384 258.1C384 188.6 383.9 185.8 382.1 182.1C374.6 167.4 354.2 166.2 344.5 179.8L341.5 184.2L341 254.8L340.5 325.5L337.7 330.2C335.9 333.3 333.3 335.9 330.2 337.7L325.5 340.5H192H58.5L53.8 337.7C50.7 335.9 48.1 333.3 46.3 330.2L43.5 325.5V192V58.5L46.3 53.8C48.1 50.7 50.7 48.1 53.8 46.3L58.5 43.5L171.5 43C296 42.4 286.9 42.9 293.2 36.3C302 27 300.4 10.7 289.8 3.40002L285.7 0.500019L169.1 0.300019C60.6 0.100019 52.1 0.300019 46.5 1.90002Z" fill="#e20338"/>
<path d="M375 22.5C372.8 23.5 338.1 57.4 281.8 113.8L192 203.5L165.8 177.4C137 148.8 136.5 148.4 125.9 149.2C112.4 150.2 103.4 163.3 107 176.8C108.2 181.1 111.4 184.6 143.4 216.8C162.7 236.3 180.2 253 182.2 254.1C187.2 256.7 196.8 256.7 201.8 254.1C203.9 253 248.6 208.9 304.6 152.8C397.3 59.9 403.8 53.2 405 48.8C407.4 39.6 403.9 30 396.2 24.6C392.6 22.1 390.8 21.5 385.2 21.3C380.7 21.1 377.3 21.5 375 22.5Z" fill="#e20338"/>
</svg>
